<svg xmlns="http://www.w3.org/2000/svg" xmlns:xlink="http://www.w3.org/1999/xlink" width="72.294" height="66.624" viewBox="0 0 72.294 66.624"><defs><linearGradient id="a" x1="0.5" x2="0.5" y2="1" gradientUnits="objectBoundingBox"><stop offset="0" stop-color="#f15d8a"/><stop offset="1" stop-color="#ff0956"/></linearGradient><filter id="b" x="0" y="0" width="55.818" height="55.664" filterUnits="userSpaceOnUse"><feOffset dy="3" input="SourceAlpha"/><feGaussianBlur stdDeviation="3" result="c"/><feFlood flood-color="#ff6091"/><feComposite operator="in" in2="c"/><feComposite in="SourceGraphic"/></filter><linearGradient id="d" x1="0.5" x2="0.5" y2="1" gradientUnits="objectBoundingBox"><stop offset="0" stop-color="#fff"/><stop offset="1" stop-color="#f120ff"/></linearGradient><filter id="e" x="48.845" y="12.683" width="23.449" height="23.92" filterUnits="userSpaceOnUse"><feOffset dy="3" input="SourceAlpha"/><feGaussianBlur stdDeviation="3" result="f"/><feFlood flood-opacity="0.51"/><feComposite operator="in" in2="f"/><feComposite in="SourceGraphic"/></filter></defs><g transform="translate(-154.789 -61.343)"><path d="M165.341,1375.682s1.941,1.18,2.782.843.779-1.015.779-1.879-.99-.194-.779-1.577c.214-1.422,1.679-4.326,2.36-5.985a15.781,15.781,0,0,1,4.773-6.247l26.858-.622,7.081-6.828a17.618,17.618,0,0,0,5.081-.631,16.9,16.9,0,0,0,3.807-1.859H208.7l-7.426,7.464h-9.778l-18.232-.515a74.241,74.241,0,0,0-5.139,7.974A27.937,27.937,0,0,0,165.341,1375.682Z" transform="translate(0 -1263)"/><path d="M176,1362.333l-3.7,25.357s-4.344.088-5.8,1.263,0,2.013,0,2.013H176l-.994-3.276,2.849-23.648h8.559l1.7,23.648-1.14,3.276h11.221a1.754,1.754,0,0,0-1.012-2.431c-1.808-.819-6.221-.846-6.221-.846l-1.852-25.357Z" transform="translate(0 -1263)"/><g transform="matrix(1, 0, 0, 1, 154.79, 61.34)" filter="url(#b)"><path d="M68.8,1343.842c.439-9.26,4.117-12.145,9.043-11.482s9.988,7.48,9.988,7.48,4.043-8.132,9.314-9.337,9.784,4.543,9.447,13.34-18.761,24.165-18.761,24.165S68.357,1353.1,68.8,1343.842Z" transform="translate(-59.79 -1324.34)" fill="url(#a)"/></g><circle cx="4" cy="4" r="4" transform="translate(169 78)" fill="#fff"/><circle cx="4" cy="4" r="4" transform="translate(189 78)" fill="#fff"/><ellipse cx="3" cy="2.5" rx="3" ry="2.5" transform="translate(190 81)"/><ellipse cx="3" cy="2.5" rx="3" ry="2.5" transform="translate(170 81)"/><path d="M175.076,1354.84s4.8.4,8.935.59a21.211,21.211,0,0,0,8.514-1.854s-4.889,5.079-8.514,6.069-4.552.169-5.816-1.686A13.458,13.458,0,0,0,175.076,1354.84Z" transform="translate(0 -1263)" fill="#fff"/><path d="M414.72,630.4l.885,9.972H432.93l1-9.972Z" transform="translate(-209 -552.401)" fill="#f52626"/><path d="M414.592,623.706v3.483H434.01v-3.483Z" transform="translate(-209.077 -549.189)" fill="#fc7979"/><path d="M8.042-1255.444H5.626v-3.432H1.5c-.061-.046-1.47-1.114-1.5-2.054-.029-.988.132-1.584,1.066-1.907a2.464,2.464,0,0,1,.811-.163,4.315,4.315,0,0,1,1.936.754,17.843,17.843,0,0,1,3.14,2.554l.008-.009a16.921,16.921,0,0,1,2.686-1.978,4.758,4.758,0,0,1,2.4-.865,4.174,4.174,0,0,1,.595.047c1.055.152,1.226.586,1.226,1.567,0,.952-1.431,2.043-1.445,2.054H8.042v3.431Zm-.148-3.945c.009,0,.765.086,1.635.086a5.061,5.061,0,0,0,2.167-.35,1.77,1.77,0,0,0,1-1.328.554.554,0,0,0-.269-.5,1.644,1.644,0,0,0-.865-.246,2.825,2.825,0,0,0-1.4.451,13.207,13.207,0,0,0-2.27,1.887Zm-6-2.683a2.115,2.115,0,0,0-.84.175.557.557,0,0,0-.357.487,1.77,1.77,0,0,0,1,1.4c.894.552,3.311.595,4.03.595.168,0,.266,0,.266,0a14.439,14.439,0,0,0-2.393-2.078A3.293,3.293,0,0,0,1.9-1262.072Z" transform="translate(208.583 1333.5)" fill="#ffe325"/><g transform="matrix(1, 0, 0, 1, 154.79, 61.34)" filter="url(#e)"><path d="M69.667,1333.83a3.16,3.16,0,0,1-.93-2.282c.056-.827.525-1.084,1.154-1.025s1.274,1.025,1.274,1.025.516-1.083,1.188-1.191a1.053,1.053,0,0,1,1.205,1.191c-.043.785-.9,1.443-1.515,2.414a4.879,4.879,0,0,0-.723,1.752S70.338,1334.689,69.667,1333.83Z" transform="translate(152.41 -1310.12) rotate(7)" fill="url(#d)"/></g></g></svg>